# xmcd CD database file
#
# Track frame offsets:
#	150
#	13532
#	28730
#	41357
#	55227
#	67212
#	81615
#	96832
#	111377
#	124967
#	139067
#	153934
#	166262
#	178475
#	193707
#	206657
#	218680
#	234340
#
# Disc length: 3324 seconds
#
# Revision: 2
# Processed by: cddbd v1.5.2PL0 Copyright (c) Steve Scherf et al.
# Submitted via: CDex 1.70beta2
#
DISCID=090cfa12
DTITLE=Jean Sablon - 1933 - 1946 [CD1]
DYEAR=1997
DGENRE=Jazz
TTITLE0=Ce petit chemin
TTITLE1=Puisque vous partez en voyage
TTITLE2=Vous avez déménagé mon coeur
TTITLE3=La dernière bergère
TTITLE4=Rendez-vous sous la pluie
TTITLE5=Miss Otis regrets
TTITLE6=Un seul couvert, please James
TTITLE7=Ces petites choses
TTITLE8=Seul
TTITLE9=Vous qui passez sans me voir
TTITLE10=La chanson des rues
TTITLE11=Il ne faut pas briser un rêve
TTITLE12=Plus rien n'existe
TTITLE13=Mélancolie
TTITLE14=Pour vous j'avais fait cette chanson
TTITLE15=Le doux caboulot
TTITLE16=J'ai ta main
TTITLE17=Two Sleepy People
EXTD=YEAR: 1997
EXTT0=
EXTT1=
EXTT2=
EXTT3=
EXTT4=
EXTT5=
EXTT6=
EXTT7=
EXTT8=
EXTT9=
EXTT10=
EXTT11=
EXTT12=
EXTT13=
EXTT14=
EXTT15=
EXTT16=
EXTT17=
PLAYORDER=
